# xmcd
#
# Track frame offsets: 
#        150
#        17295
#        31387
#        43128
#        55114
#        67246
#        79479
#        91494
#        114834
#        127202
#        141180
#        157497
#
# Disc length: 2351 seconds
#
# Revision: 0
# Processed by: cddbd v1.5.1PL0 Copyright (c) Steve Scherf et al.
# Submitted via: ExactAudioCopy v0.95a4
#
DISCID=ad092d0c
DTITLE=Free South - Free South
DYEAR=2003
DGENRE=Country
TTITLE0=Toast to Dixie
TTITLE1=Mississippi
TTITLE2=Southern Thang
TTITLE3=1865
TTITLE4=Ain't Gonna Go Away
TTITLE5=American Rebel
TTITLE6=Louisiana
TTITLE7=Dixie
TTITLE8=Southern Boy
TTITLE9=Don't Mess With Dixie
TTITLE10=Hootenanny Hoedown
TTITLE11=Farm Boy
EXTD=
EXTT0=
EXTT1=
EXTT2=
EXTT3=
EXTT4=
EXTT5=
EXTT6=
EXTT7=
EXTT8=
EXTT9=
EXTT10=
EXTT11=
PLAYORDER=
